<svg width="20" height="20" viewBox="0 0 20 20" fill="none" xmlns="http://www.w3.org/2000/svg">
<path d="M10.9998 10.0003L7.85885 6.58028C7.73 6.45014 7.65771 6.27441 7.65771 6.09128C7.65771 5.90814 7.73 5.73241 7.85885 5.60228C7.92212 5.53803 7.99754 5.487 8.08072 5.45218C8.1639 5.41735 8.25317 5.39941 8.34335 5.39941C8.43352 5.39941 8.5228 5.41735 8.60598 5.45218C8.68915 5.487 8.76458 5.53803 8.82785 5.60228L12.6578 9.51028C12.7865 9.64071 12.8587 9.81656 12.8587 9.99978C12.8587 10.183 12.7865 10.3588 12.6578 10.4893L8.82785 14.3973C8.76458 14.4615 8.68915 14.5125 8.60598 14.5474C8.5228 14.5822 8.43352 14.6001 8.34335 14.6001C8.25317 14.6001 8.1639 14.5822 8.08072 14.5474C7.99754 14.5125 7.92212 14.4615 7.85885 14.3973C7.73 14.2671 7.65771 14.0914 7.65771 13.9083C7.65771 13.7251 7.73 13.5494 7.85885 13.4193L10.9998 10.0003Z" fill="url(#paint0_linear)"/>
<defs>
<linearGradient id="paint0_linear" x1="12.8587" y1="5.39942" x2="7.46702" y2="5.63497" gradientUnits="userSpaceOnUse">
<stop stop-color="#2D65F5"/>
<stop offset="1" stop-color="#4684FE"/>
</linearGradient>
</defs>
</svg>
