<svg width="20" height="20" viewBox="0 0 20 20" fill="none" xmlns="http://www.w3.org/2000/svg">
<path d="M12.1409 13.4183C12.2698 13.5484 12.3421 13.7242 12.3421 13.9073C12.3421 14.0904 12.2698 14.2662 12.1409 14.3963C12.0777 14.4606 12.0022 14.5116 11.9191 14.5464C11.8359 14.5812 11.7466 14.5992 11.6564 14.5992C11.5663 14.5992 11.477 14.5812 11.3938 14.5464C11.3106 14.5116 11.2352 14.4606 11.1719 14.3963L7.34193 10.4883C7.21326 10.3579 7.14111 10.182 7.14111 9.9988C7.14111 9.81558 7.21326 9.63973 7.34193 9.5093L11.1719 5.6013C11.2352 5.53705 11.3106 5.48603 11.3938 5.4512C11.477 5.41637 11.5663 5.39844 11.6564 5.39844C11.7466 5.39844 11.8359 5.41637 11.9191 5.4512C12.0022 5.48603 12.0777 5.53705 12.1409 5.6013C12.2698 5.73143 12.3421 5.90717 12.3421 6.0903C12.3421 6.27343 12.2698 6.44917 12.1409 6.5793L8.99993 10.0003L12.1409 13.4183Z" fill="url(#paint0_linear)"/>
<defs>
<linearGradient id="paint0_linear" x1="12.3421" y1="5.39844" x2="6.95042" y2="5.634" gradientUnits="userSpaceOnUse">
<stop stop-color="#2D65F5"/>
<stop offset="1" stop-color="#4684FE"/>
</linearGradient>
</defs>
</svg>
