<svg width="24" height="24" viewBox="0 0 24 24" fill="none" xmlns="http://www.w3.org/2000/svg">
<path d="M20.9956 4.65432H20.994C20.9905 4.54269 20.9441 4.4367 20.8646 4.3583C20.7851 4.2799 20.6784 4.23509 20.5668 4.23318V4.23238H19.6762L19.676 20.2415L19.6762 20.2442C19.6762 20.4827 19.4851 20.6754 19.2477 20.6799V20.6812L5.75585 20.6807C5.65278 20.6805 5.55311 20.6438 5.47455 20.5771C5.39599 20.5103 5.34363 20.4179 5.32676 20.3162V19.3616H17.8907V19.3608C17.8936 19.3608 17.8963 19.3616 17.8989 19.3616C18.1401 19.3616 18.3352 19.1668 18.3352 18.9253L18.3346 18.9222L18.3352 2.43651C18.3352 2.19533 18.1401 2 17.8989 2.00027L17.891 2.00106V2H16.3654V11.2635C16.3656 11.3054 16.3531 11.3463 16.3295 11.3809C16.306 11.4156 16.2725 11.4422 16.2334 11.4575C16.1944 11.4727 16.1517 11.4757 16.1109 11.4661C16.0701 11.4566 16.0332 11.4349 16.005 11.4039L14.503 9.90199H14.498C14.4813 9.88215 14.4605 9.86617 14.437 9.85514C14.4136 9.84411 14.388 9.83831 14.362 9.83812C14.3361 9.83831 14.3105 9.84411 14.287 9.85514C14.2636 9.86617 14.2428 9.88215 14.2261 9.90199H14.221L12.708 11.4151H12.7056C12.6762 11.4431 12.6392 11.4618 12.5992 11.4689C12.5592 11.476 12.5181 11.4712 12.4808 11.4551C12.4435 11.4389 12.4119 11.4122 12.3897 11.3782C12.3676 11.3441 12.3559 11.3043 12.3563 11.2637V2.00027H4.43625C4.19507 2.00027 4 2.19533 4 2.43651C4 2.44208 4.00159 2.44764 4.00159 2.45321V21.5473C4.00133 21.5526 4 21.5577 4 21.563C4 21.5683 4.00133 21.5733 4.00159 21.5786V21.5987H4.00371C4.0123 21.7076 4.06157 21.8093 4.14172 21.8835C4.22187 21.9577 4.32702 21.999 4.43625 21.9992V21.9995L20.5591 22H20.5668V21.9992C20.681 21.9974 20.79 21.9507 20.8702 21.8693C20.9504 21.7878 20.9953 21.6781 20.9953 21.5638L20.995 21.5611L20.9956 4.65432V4.65432Z" fill="#8C939D"/>
</svg>
