<svg width="28" height="28" viewBox="0 0 28 28" fill="none" xmlns="http://www.w3.org/2000/svg">
<path fill-rule="evenodd" clip-rule="evenodd" d="M25.33 13.665C25.33 16.7588 24.101 19.7258 21.9134 21.9134C19.7258 24.101 16.7588 25.33 13.665 25.33C10.5712 25.33 7.60421 24.101 5.4166 21.9134C3.22899 19.7258 2 16.7588 2 13.665C2 10.5712 3.22899 7.60421 5.4166 5.4166C7.60421 3.22899 10.5712 2 13.665 2C16.7588 2 19.7258 3.22899 21.9134 5.4166C24.101 7.60421 25.33 10.5712 25.33 13.665V13.665ZM13.665 9.29062C13.4088 9.29038 13.1571 9.35763 12.9351 9.48562C12.7132 9.61361 12.5289 9.79782 12.4008 10.0197C12.3083 10.1916 12.1822 10.3431 12.0301 10.4654C11.8779 10.5876 11.7028 10.6781 11.515 10.7314C11.3273 10.7847 11.1307 10.7998 10.937 10.7757C10.7433 10.7516 10.5564 10.6889 10.3874 10.5913C10.2184 10.4937 10.0707 10.3631 9.9531 10.2073C9.83549 10.0515 9.75035 9.87373 9.70273 9.68444C9.65511 9.49515 9.64598 9.29823 9.67588 9.10535C9.70578 8.91247 9.7741 8.72755 9.87679 8.56156C10.3583 7.72768 11.1015 7.07597 11.9911 6.7075C12.8807 6.33903 13.8671 6.2744 14.7972 6.52362C15.7273 6.77285 16.5492 7.322 17.1354 8.08592C17.7216 8.84984 18.0393 9.78584 18.0394 10.7487C18.0396 11.6537 17.7593 12.5364 17.2371 13.2755C16.7148 14.0145 15.9762 14.5734 15.1231 14.8752V15.1231C15.1231 15.5098 14.9695 15.8807 14.696 16.1542C14.4226 16.4276 14.0517 16.5812 13.665 16.5812C13.2783 16.5812 12.9074 16.4276 12.634 16.1542C12.3605 15.8807 12.2069 15.5098 12.2069 15.1231V13.665C12.2069 13.2783 12.3605 12.9074 12.634 12.634C12.9074 12.3605 13.2783 12.2069 13.665 12.2069C14.0517 12.2069 14.4226 12.0533 14.696 11.7798C14.9695 11.5063 15.1231 11.1355 15.1231 10.7487C15.1231 10.362 14.9695 9.99115 14.696 9.7177C14.4226 9.44425 14.0517 9.29062 13.665 9.29062ZM13.665 20.9556C14.0517 20.9556 14.4226 20.802 14.696 20.5285C14.9695 20.2551 15.1231 19.8842 15.1231 19.4975C15.1231 19.1108 14.9695 18.7399 14.696 18.4665C14.4226 18.193 14.0517 18.0394 13.665 18.0394C13.2783 18.0394 12.9074 18.193 12.634 18.4665C12.3605 18.7399 12.2069 19.1108 12.2069 19.4975C12.2069 19.8842 12.3605 20.2551 12.634 20.5285C12.9074 20.802 13.2783 20.9556 13.665 20.9556V20.9556Z" fill="#828287"/>
</svg>
