<svg width="17" height="15" viewBox="0 0 17 15" fill="none" xmlns="http://www.w3.org/2000/svg">
<path d="M17 0L13.9091 -2.70216e-07L13.9091 9L17 9L17 0ZM5.90104e-07 8.25C5.1798e-07 9.075 0.695456 9.75 1.54546 9.75L6.42136 9.75L5.68727 13.1775L5.66409 13.4175C5.66409 13.725 5.79546 14.01 6.00409 14.2125L6.82318 15L11.9077 10.0575C12.1936 9.7875 12.3636 9.4125 12.3636 9L12.3636 1.5C12.3636 0.675001 11.6682 -4.66122e-07 10.8182 -5.40432e-07L3.86364 -1.14842e-06C3.22227 -1.20449e-06 2.67364 0.375 2.44182 0.915L0.108182 6.2025C0.0386379 6.375 7.38285e-07 6.555 7.21238e-07 6.75L5.90104e-07 8.25Z" fill="white"/>
</svg>
