<svg width="17" height="15" viewBox="0 0 17 15" fill="none" xmlns="http://www.w3.org/2000/svg">
<path d="M0 15H3.09091L3.09091 6H0L0 15ZM17 6.75C17 5.925 16.3045 5.25 15.4545 5.25L10.5786 5.25L11.3127 1.8225L11.3359 1.5825C11.3359 1.275 11.2045 0.99 10.9959 0.7875L10.1768 0L5.09227 4.9425C4.80636 5.2125 4.63636 5.5875 4.63636 6L4.63636 13.5C4.63636 14.325 5.33182 15 6.18182 15L13.1364 15C13.7777 15 14.3264 14.625 14.5582 14.085L16.8918 8.7975C16.9614 8.625 17 8.445 17 8.25V6.75Z" fill="white"/>
</svg>
